<?xml version="1.0" encoding="UTF-8" standalone="no"?>
<svg width="64px" height="64px" viewBox="0 0 64 64" version="1.1" xmlns="http://www.w3.org/2000/svg" xmlns:xlink="http://www.w3.org/1999/xlink" xmlns:sketch="http://www.bohemiancoding.com/sketch/ns">
    <!-- Generator: Sketch 3.3.2 (12043) - http://www.bohemiancoding.com/sketch -->
    <title>ico-reporting</title>
    <desc>Created with Sketch.</desc>
    <defs></defs>
    <g id="Page-1" stroke="none" stroke-width="1" fill="none" fill-rule="evenodd" sketch:type="MSPage">
        <g id="ico-reporting" sketch:type="MSArtboardGroup" fill="#34495E">
            <g id="Group" sketch:type="MSLayerGroup" transform="translate(2.000000, 8.000000)">
                <path d="M55.2958491,43.3333333 L4.94771581,43.3333333 C2.69958248,43.3333333 0.871782475,41.5055333 0.871782475,39.2574 L0.871782475,4.91573333 C0.871782475,2.6676 2.69958248,0.8398 4.94771581,0.8398 L55.2993158,0.8398 C57.5474491,0.8398 59.3752491,2.6676 59.3752491,4.91573333 L59.3752491,39.2608667 C59.3717825,41.5055333 57.5439825,43.3333333 55.2958491,43.3333333 L55.2958491,43.3333333 Z M4.94771581,2.00373333 C3.34351581,2.00373333 2.03658248,3.31066667 2.03658248,4.91573333 L2.03658248,39.2608667 C2.03658248,40.8650667 3.34351581,42.172 4.94771581,42.172 L55.2993158,42.172 C56.9035158,42.172 58.2104491,40.8650667 58.2104491,39.2608667 L58.2104491,4.91573333 C58.2104491,3.31066667 56.9035158,2.00373333 55.2993158,2.00373333 L4.94771581,2.00373333 Z" id="Fill-1" sketch:type="MSShapeGroup"></path>
                <path d="M58.7893825,35.1849333 L1.45418248,35.1849333 C1.13264914,35.1849333 0.871782475,34.9240667 0.871782475,34.6025333 C0.871782475,34.281 1.13264914,34.0201333 1.45418248,34.0201333 L58.7893825,34.0201333 C59.1109158,34.0201333 59.3717825,34.281 59.3717825,34.6025333 C59.3717825,34.9240667 59.1109158,35.1849333 58.7893825,35.1849333 L58.7893825,35.1849333 Z" id="Fill-2" sketch:type="MSShapeGroup"></path>
                <path d="M40.3085825,46.8268667 L19.6437825,46.8268667 C19.3222491,46.8268667 19.0613825,46.566 19.0613825,46.2444667 C19.0613825,45.9229333 19.3222491,45.6629333 19.6437825,45.6629333 L40.3085825,45.6629333 C40.6301158,45.6629333 40.8909825,45.9229333 40.8909825,46.2444667 C40.8909825,46.566 40.6301158,46.8268667 40.3085825,46.8268667 L40.3085825,46.8268667 Z" id="Fill-3" sketch:type="MSShapeGroup"></path>
                <path d="M16.0046491,17.3333333 C14.6127825,17.3333333 13.4826491,16.2023333 13.4826491,14.8113333 C13.4826491,13.4194667 14.6127825,12.2893333 16.0046491,12.2893333 C17.3956491,12.2893333 18.5266491,13.4194667 18.5266491,14.8113333 C18.5266491,16.2023333 17.3956491,17.3333333 16.0046491,17.3333333 L16.0046491,17.3333333 Z M16.0046491,13.4532667 C15.2567158,13.4532667 14.6474491,14.0634 14.6474491,14.8113333 C14.6474491,15.5592667 15.2567158,16.1685333 16.0046491,16.1685333 C16.7525825,16.1685333 17.3618491,15.5592667 17.3618491,14.8113333 C17.3618491,14.0634 16.7525825,13.4532667 16.0046491,13.4532667 L16.0046491,13.4532667 Z" id="Fill-4" sketch:type="MSShapeGroup"></path>
                <path d="M30.0099825,25.9289333 C28.6189825,25.9289333 27.4879825,24.7979333 27.4879825,23.4069333 C27.4879825,22.0150667 28.6189825,20.8849333 30.0099825,20.8849333 C31.4018491,20.8849333 32.5319825,22.0150667 32.5319825,23.4069333 C32.5319825,24.7979333 31.4018491,25.9289333 30.0099825,25.9289333 L30.0099825,25.9289333 Z M30.0099825,22.0488667 C29.2620491,22.0488667 28.6527825,22.659 28.6527825,23.4069333 C28.6527825,24.1548667 29.2620491,24.7641333 30.0099825,24.7641333 C30.7579158,24.7641333 31.3680491,24.1548667 31.3680491,23.4069333 C31.3680491,22.659 30.7579158,22.0488667 30.0099825,22.0488667 L30.0099825,22.0488667 Z" id="Fill-5" sketch:type="MSShapeGroup"></path>
                <path d="M38.7615825,13.4532667 C37.3697158,13.4532667 36.2395825,12.3231333 36.2395825,10.9312667 C36.2395825,9.54026667 37.3697158,8.40926667 38.7615825,8.40926667 C40.1525825,8.40926667 41.2835825,9.54026667 41.2835825,10.9312667 C41.2835825,12.3231333 40.1525825,13.4532667 38.7615825,13.4532667 L38.7615825,13.4532667 Z M38.7615825,9.57406667 C38.0127825,9.57406667 37.4035158,10.1833333 37.4035158,10.9312667 C37.4035158,11.6800667 38.0127825,12.2893333 38.7615825,12.2893333 C39.5095158,12.2893333 40.1187825,11.6800667 40.1187825,10.9312667 C40.1187825,10.1798667 39.5095158,9.57406667 38.7615825,9.57406667 L38.7615825,9.57406667 Z" id="Fill-6" sketch:type="MSShapeGroup"></path>
                <path d="M9.02018248,29.3618 C8.93264914,29.3618 8.84078248,29.341 8.75671581,29.2976667 C8.46898248,29.1520667 8.35718248,28.8028 8.50278248,28.5150667 L14.6127825,16.4866 C14.7583825,16.1988667 15.1076491,16.0870667 15.3953825,16.2326667 C15.6831158,16.3782667 15.7949158,16.7275333 15.6493158,17.0152667 L9.53844914,29.0437333 C9.43704914,29.2465333 9.23338248,29.3618 9.02018248,29.3618 L9.02018248,29.3618 Z" id="Fill-7" sketch:type="MSShapeGroup"></path>
                <path d="M28.0703825,22.6685333 C27.9655158,22.6685333 27.8571825,22.6382 27.7583825,22.5775333 L17.4805825,16.0567333 C17.2101825,15.8842667 17.1287158,15.5254667 17.3011825,15.2550667 C17.4736491,14.9838 17.8324491,14.9023333 18.1037158,15.0756667 L28.3815158,21.5956 C28.6527825,21.7680667 28.7333825,22.1268667 28.5609158,22.3981333 C28.4491158,22.5740667 28.2601825,22.6685333 28.0703825,22.6685333 L28.0703825,22.6685333 Z" id="Fill-8" sketch:type="MSShapeGroup"></path>
                <path d="M31.4287158,22.6685333 C31.3134491,22.6685333 31.1981825,22.6347333 31.0967825,22.5636667 C30.8324491,22.3808 30.7648491,22.0185333 30.9477158,21.7550667 L37.3090491,12.5398 C37.4919158,12.2754667 37.8541825,12.2078667 38.1185158,12.3907333 C38.3819825,12.5736 38.4495825,12.9358667 38.2667158,13.1993333 L31.9062491,22.4146 C31.7944491,22.581 31.6115825,22.6685333 31.4287158,22.6685333 L31.4287158,22.6685333 Z" id="Fill-9" sketch:type="MSShapeGroup"></path>
                <path d="M40.6127825,10.9382 C40.3250491,10.9382 40.0745825,10.725 40.0373158,10.4303333 C39.9974491,10.1122667 40.2201825,9.82106667 40.5391158,9.77686667 L52.7495825,8.18566667 C53.0685158,8.14493333 53.3588491,8.36853333 53.4030491,8.6866 C53.4437825,9.00553333 53.2201825,9.29673333 52.9021158,9.34006667 L40.6907825,10.9347333 C40.6639158,10.9382 40.6405158,10.9382 40.6127825,10.9382 L40.6127825,10.9382 Z" id="Fill-10" sketch:type="MSShapeGroup"></path>
            </g>
        </g>
    </g>
</svg>