<?xml version="1.0" encoding="UTF-8" standalone="no"?>
<svg width="64px" height="64px" viewBox="0 0 64 64" version="1.1" xmlns="http://www.w3.org/2000/svg" xmlns:xlink="http://www.w3.org/1999/xlink" xmlns:sketch="http://www.bohemiancoding.com/sketch/ns">
    <!-- Generator: Sketch 3.3.2 (12043) - http://www.bohemiancoding.com/sketch -->
    <title>ico-docs</title>
    <desc>Created with Sketch.</desc>
    <defs></defs>
    <g id="Page-1" stroke="none" stroke-width="1" fill="none" fill-rule="evenodd" sketch:type="MSPage">
        <g id="ico-docs" sketch:type="MSArtboardGroup" fill="#34495E">
            <g id="Group" sketch:type="MSLayerGroup" transform="translate(0.000000, 17.000000)">
                <path d="M1.97476493,16.4196716 C1.57881028,16.4196716 1.19029139,16.2211715 0.943052102,15.8601737 C0.547097448,15.2675923 0.68558863,14.4463466 1.25163648,14.0289124 L19.1727672,0.892872792 C19.7434624,0.478357763 20.5242181,0.622367679 20.9229611,1.21592206 C21.3189158,1.80850341 21.1813541,2.62974914 20.6143768,3.04718329 L2.69324603,16.1793308 C2.47203193,16.3398824 2.22107475,16.4196716 1.97476493,16.4196716 L1.97476493,16.4196716 Z" id="Fill-1" sketch:type="MSShapeGroup"></path>
                <path d="M19.8921778,29.5557113 C19.6449385,29.5557113 19.3949108,29.4788411 19.1727672,29.3192626 L1.25163648,16.1793308 C0.68558863,15.7657888 0.547097448,14.944543 0.943052102,14.3519617 C1.34272464,13.7584073 2.1234803,13.6143974 2.69324603,14.0289124 L20.6143768,27.1649521 C21.1813541,27.5823862 21.3189158,28.3997398 20.9229611,28.9923211 C20.6766513,29.3611033 20.2881324,29.5557113 19.8921778,29.5557113 L19.8921778,29.5557113 Z" id="Fill-2" sketch:type="MSShapeGroup"></path>
                <path d="M62.2007691,16.4196716 C61.9507414,16.4196716 61.6997842,16.3398824 61.482288,16.1793308 L43.5648752,3.04329113 C42.9941799,2.62974914 42.8603361,1.80850341 43.2562908,1.2120299 C43.6550338,0.61458336 44.4357895,0.474465603 45.0027668,0.888980632 L62.9238975,14.0250203 C63.4936633,14.4385623 63.6284366,15.259808 63.2324819,15.8562815 C62.9852426,16.2211715 62.5967237,16.4196716 62.2007691,16.4196716 L62.2007691,16.4196716 Z" id="Fill-3" sketch:type="MSShapeGroup"></path>
                <path d="M44.2833563,29.5557113 C43.8874016,29.5557113 43.4988827,29.3611033 43.2525729,28.9962133 C42.8566182,28.403632 42.9904621,27.5823862 43.5611573,27.1678712 L61.482288,14.0318315 C62.0483358,13.6182896 62.8328094,13.7584073 63.228764,14.3548808 C63.6247187,14.9484352 63.4899454,15.7696809 62.9201797,16.1832229 L45.0027668,29.3153704 C44.7843411,29.475922 44.5343134,29.5557113 44.2833563,29.5557113 L44.2833563,29.5557113 Z" id="Fill-4" sketch:type="MSShapeGroup"></path>
                <path d="M26.234888,29.5557113 C26.057359,29.5557113 25.8751827,29.5167897 25.7050895,29.4340813 C25.0767671,29.1256276 24.8044321,28.3462226 25.0981449,27.6894206 L36.8001851,1.41734134 C37.0948274,0.759566316 37.8393337,0.474465603 38.4667266,0.781946235 C39.095049,1.09039991 39.367384,1.86883188 39.0736712,2.52660691 L27.3753489,28.794794 C27.1606411,29.2735297 26.7070593,29.5557113 26.234888,29.5557113 L26.234888,29.5557113 Z" id="Fill-5" sketch:type="MSShapeGroup"></path>
            </g>
        </g>
    </g>
</svg>