<?xml version="1.0" encoding="UTF-8" standalone="no"?>
<svg width="64px" height="64px" viewBox="0 0 64 64" version="1.1" xmlns="http://www.w3.org/2000/svg" xmlns:xlink="http://www.w3.org/1999/xlink" xmlns:sketch="http://www.bohemiancoding.com/sketch/ns">
    <!-- Generator: Sketch 3.3.2 (12043) - http://www.bohemiancoding.com/sketch -->
    <title>ico-realtime</title>
    <desc>Created with Sketch.</desc>
    <defs></defs>
    <g id="Page-1" stroke="none" stroke-width="1" fill="none" fill-rule="evenodd" sketch:type="MSPage">
        <g id="ico-realtime" sketch:type="MSArtboardGroup" fill="#34495E">
            <path d="M32.1033333,12.09928 L32.1033333,11.22 L37.0333333,11.22 C38.47096,11.22 39.6433333,10.0476267 39.6433333,8.61 C39.6433333,7.17237333 38.47096,6 37.0333333,6 L25.4333333,6 C23.9957067,6 22.8233333,7.17237333 22.8233333,8.61 C22.8233333,10.0476267 23.9957067,11.22 25.4333333,11.22 L30.3633333,11.22 L30.3633333,12.1325333 C18.4640533,12.8362667 9,22.7357067 9,34.8066667 C9,47.3338933 19.18944,57.5233333 31.7166667,57.5233333 C44.2438933,57.5233333 54.4333333,47.3308 54.4333333,34.8035733 C54.4333333,22.40936 44.4496,12.3042133 32.1033333,12.09928 L32.1033333,12.09928 Z M24.5633333,8.61 C24.5633333,8.12976 24.9530933,7.74 25.4333333,7.74 L37.0333333,7.74 C37.5135733,7.74 37.9033333,8.12976 37.9033333,8.61 C37.9033333,9.09024 37.5135733,9.48 37.0333333,9.48 L25.4333333,9.48 C24.9530933,9.48 24.5633333,9.08714667 24.5633333,8.61 L24.5633333,8.61 Z M31.7166667,55.78024 C20.14992,55.78024 10.74,46.37032 10.74,34.8035733 C10.74,23.2368267 20.14992,13.8269067 31.7166667,13.8269067 C43.2834133,13.8269067 52.6933333,23.23992 52.6933333,34.8035733 C52.6933333,46.37032 43.2834133,55.78024 31.7166667,55.78024 L31.7166667,55.78024 Z" id="Fill-1" sketch:type="MSShapeGroup"></path>
            <path d="M44.6932533,23.2296 L43.4636533,22 L33.3979467,32.0657067 C32.9788,31.8422133 32.5070667,31.69992 31.9966667,31.69992 C30.3440533,31.69992 29,33.0439733 29,34.6965867 C29,36.3492 30.3440533,37.6932533 31.9966667,37.6932533 C33.64928,37.6932533 34.9933333,36.3492 34.9933333,34.6965867 C34.9933333,34.1861867 34.8541333,33.7144533 34.6275467,33.2953067 L44.6932533,23.2296 Z M31.9966667,35.9532533 C31.3045333,35.9532533 30.74,35.38872 30.74,34.6965867 C30.74,34.0044533 31.3045333,33.43992 31.9966667,33.43992 C32.6888,33.43992 33.2533333,34.0044533 33.2533333,34.6965867 C33.2533333,35.39104 32.6888,35.9532533 31.9966667,35.9532533 L31.9966667,35.9532533 Z" id="Fill-2" sketch:type="MSShapeGroup"></path>
        </g>
    </g>
</svg>