<?xml version="1.0" encoding="UTF-8" standalone="no"?>
<svg width="64px" height="64px" viewBox="0 0 64 64" version="1.1" xmlns="http://www.w3.org/2000/svg" xmlns:xlink="http://www.w3.org/1999/xlink" xmlns:sketch="http://www.bohemiancoding.com/sketch/ns">
    <!-- Generator: Sketch 3.3.2 (12043) - http://www.bohemiancoding.com/sketch -->
    <title>ico-api</title>
    <desc>Created with Sketch.</desc>
    <defs></defs>
    <g id="Page-1" stroke="none" stroke-width="1" fill="none" fill-rule="evenodd" sketch:type="MSPage">
        <g id="ico-api" sketch:type="MSArtboardGroup" fill="#34495E">
            <path d="M33.71856,7.78068 L35.12836,13.42444 C37.6698,13.88424 40.02428,14.87604 42.0664,16.29192 L47.05124,13.30284 L49.5714,15.823 L46.57928,20.80784 C47.99516,22.84996 48.98696,25.20444 49.44676,27.74588 L55.09356,29.15568 L55.09356,32.71856 L49.4498,34.12836 C48.99,36.6698 47.9982,39.02428 46.58232,41.0664 L49.5714,46.05124 L47.05124,48.5714 L42.0664,45.58232 C40.02428,46.9982 37.6698,47.99 35.12836,48.4498 L33.71856,54.09356 L30.15568,54.09356 L28.74588,48.4498 C26.20444,47.99 23.84996,46.9982 21.80784,45.58232 L16.823,48.5714 L14.30284,46.05124 L17.29496,41.0664 C15.87908,39.02428 14.88728,36.6698 14.42748,34.12836 L8.78068,32.71856 L8.78068,29.15568 L14.42444,27.74588 C14.88424,25.20444 15.87604,22.84996 17.29192,20.80784 L14.30284,15.823 L16.823,13.30284 L21.80784,16.29496 C23.84996,14.87908 26.20444,13.88728 28.74588,13.42748 L30.15568,7.78068 L33.71856,7.78068 L33.71856,7.78068 Z M31.93712,43.40568 C38.82424,43.40568 44.40568,37.82424 44.40568,30.93712 C44.40568,24.05 38.82424,18.46856 31.93712,18.46856 C25.05,18.46856 19.46856,24.05 19.46856,30.93712 C19.46856,37.82424 25.05,43.40568 31.93712,43.40568 L31.93712,43.40568 Z M33.71856,6 L30.15568,6 C29.33944,6 28.62732,6.5548 28.4282,7.34748 L27.2882,11.91356 C25.33196,12.38856 23.48516,13.1516 21.77212,14.19356 L17.74032,11.77676 C17.45532,11.60424 17.13764,11.5214 16.823,11.5214 C16.3632,11.5214 15.90568,11.7 15.56444,12.04428 L13.04428,14.56444 C12.46516,15.14356 12.35496,16.0396 12.77676,16.74032 L15.1966,20.77212 C14.15464,22.48516 13.3916,24.33196 12.9166,26.2882 L8.35052,27.4282 C7.5548,27.62732 7,28.33944 7,29.15568 L7,32.71856 C7,33.5348 7.5548,34.24692 8.34748,34.44604 L12.91356,35.58604 C13.38856,37.54228 14.1516,39.38908 15.19356,41.10212 L12.77372,45.13392 C12.35192,45.83464 12.46516,46.73068 13.04124,47.3098 L15.56444,49.82996 C15.90872,50.17424 16.3632,50.35284 16.823,50.35284 C17.13764,50.35284 17.45532,50.27 17.74032,50.09748 L21.77212,47.67764 C23.48516,48.7196 25.33196,49.48568 27.2882,49.95764 L28.4282,54.52372 C28.62732,55.31944 29.33944,55.87424 30.15568,55.87424 L33.71856,55.87424 C34.5348,55.87424 35.24692,55.31944 35.44604,54.52676 L36.58604,49.96068 C38.54228,49.48568 40.38908,48.72264 42.10212,47.68068 L46.13392,50.10052 C46.41892,50.27 46.7366,50.35588 47.05124,50.35588 C47.51104,50.35588 47.96856,50.17728 48.3098,49.833 L50.82996,47.3098 C51.40908,46.73068 51.51928,45.83464 51.09748,45.13392 L48.67764,41.10212 C49.7196,39.38908 50.48264,37.54228 50.95764,35.58604 L55.52372,34.44604 C56.31944,34.24692 56.87424,33.5348 56.87424,32.71856 L56.87424,29.15568 C56.87424,28.33944 56.31944,27.62732 55.52676,27.4282 L50.96068,26.2882 C50.48568,24.33196 49.72264,22.48516 48.68068,20.77212 L51.10052,16.74032 C51.52232,16.0396 51.40908,15.14356 50.833,14.56444 L48.31284,12.04428 C47.96856,11.7 47.51408,11.5214 47.05428,11.5214 C46.73964,11.5214 46.42196,11.60424 46.14,11.77676 L42.1082,14.1966 C40.39516,13.15464 38.54836,12.3916 36.59212,11.9166 L35.45212,7.35052 C35.24692,6.5548 34.5348,6 33.71856,6 L33.71856,6 Z M31.93712,41.62424 C26.04408,41.62424 21.25,36.83016 21.25,30.93712 C21.25,25.04408 26.04408,20.25 31.93712,20.25 C37.83016,20.25 42.62424,25.04408 42.62424,30.93712 C42.62424,36.83016 37.83016,41.62424 31.93712,41.62424 L31.93712,41.62424 Z" id="Imported-Layers" sketch:type="MSShapeGroup"></path>
        </g>
    </g>
</svg>