<?xml version="1.0" encoding="UTF-8" standalone="no"?>
<svg width="64px" height="64px" viewBox="0 0 64 64" version="1.1" xmlns="http://www.w3.org/2000/svg" xmlns:xlink="http://www.w3.org/1999/xlink" xmlns:sketch="http://www.bohemiancoding.com/sketch/ns">
    <!-- Generator: Sketch 3.3.2 (12043) - http://www.bohemiancoding.com/sketch -->
    <title>ico-integration</title>
    <desc>Created with Sketch.</desc>
    <defs></defs>
    <g id="Page-1" stroke="none" stroke-width="1" fill="none" fill-rule="evenodd" sketch:type="MSPage">
        <g id="ico-integration" sketch:type="MSArtboardGroup" fill="#34495E">
            <path d="M37.3241342,8.03234979 C36.7076275,8.06406979 35.9040542,8.13401645 35.4404542,8.20396312 C33.9658809,8.41624312 31.8569075,9.30928312 30.1627342,10.4373765 C29.1842942,11.0856031 28.4636809,11.6728298 27.6536009,12.4829098 C26.7386009,13.3946565 26.1725209,14.1258431 25.5308009,15.2279098 L25.2477609,15.7142831 L24.9208009,15.5589365 C22.7191075,14.5227498 19.7325475,14.2242565 17.3307742,14.8057898 C15.5902409,15.2246565 13.6390542,16.2795498 12.1970142,17.5792565 C12.0286542,17.7313498 11.8627342,17.8744965 11.8277609,17.9005231 C11.7236542,17.9794165 10.9892142,18.7772965 10.7322009,19.1010031 C10.3702675,19.5556565 9.92212087,20.2543098 9.66429421,20.7626431 C9.00061421,22.0778031 8.42884087,24.0289898 8.35238754,25.2327231 L8.33042754,25.5792031 L7.54881421,25.9696031 C6.23690754,26.6243365 5.35037421,27.2758165 4.26701421,28.3876431 C3.33900087,29.3376165 2.72249421,30.1761631 2.20765421,31.1863231 C1.10558754,33.3628031 0.73714754,35.8662431 1.18773421,38.2013231 C1.60090754,40.3656031 2.62082754,42.3062165 4.21252087,43.9556565 C5.94085421,45.7506831 7.26252087,46.5290431 9.52765421,47.1008165 C10.7069875,47.3960565 11.8505342,47.4847098 15.1990275,47.5359498 C15.8057742,47.5457098 16.6573342,47.5579098 17.0827075,47.5676698 C20.9590542,47.6473765 45.2769075,47.6880431 47.3387075,47.6213498 C49.9909875,47.5392031 51.2174942,47.4472965 52.3455875,47.2561631 C53.3939742,47.0780431 54.1438675,46.8429898 55.2776542,46.3322165 C56.8343742,45.6262431 57.7022009,45.0447098 58.7660409,43.9743631 C59.8786809,42.8560298 60.6310142,41.6962165 61.2036009,40.2029365 C61.9242142,38.3257631 62.1787875,36.0923498 61.8770409,34.2460831 C61.6224675,32.6763498 60.9010409,30.9195498 59.9770942,29.6076431 C59.4622542,28.8862165 58.5602675,27.9045231 57.8770675,27.3360031 C56.4626809,26.1509765 55.0238942,25.3856298 53.4159342,24.9561898 C53.0474942,24.8577765 52.9710409,24.8260565 52.9710409,24.7788831 C52.9710409,24.7463498 53.0092675,24.4446031 53.0540009,24.1046298 C53.1337075,23.5426165 53.1394009,23.4059765 53.1394009,22.4942298 C53.1394009,21.4206298 53.0954809,20.9375098 52.9206142,20.0509765 C52.4692142,17.7760831 51.4460409,15.5426698 49.9852942,13.6362165 C48.9393475,12.2738831 47.5509875,11.0156565 46.2041075,10.2055765 C44.6636542,9.28081645 42.1187342,8.28285645 40.8572542,8.11124312 C40.0723875,8.00062979 38.6108275,7.96890979 37.3241342,8.03234979 L37.3241342,8.03234979 Z M40.4692942,9.83632312 C41.1077609,9.92578979 41.8072275,10.1356298 42.8588675,10.5577498 C44.0373875,11.0311098 44.9588942,11.4890165 45.6486009,11.9461098 C48.4952675,13.8493098 50.6302675,17.1945498 51.2272542,20.6894431 C51.4175742,21.7980165 51.4273342,22.8309498 51.2589742,24.1143898 C51.2052942,24.5243098 51.1540542,25.0456565 51.1442942,25.2676965 C51.1288409,25.6426431 51.1320942,25.6841231 51.1955342,25.8362165 C51.2402675,25.9378831 51.3224142,26.0525631 51.4208275,26.1379631 C51.5956942,26.2973765 51.6591342,26.3193365 52.5838942,26.5608965 C53.5525742,26.8146565 53.9974675,26.9773231 54.6587075,27.3075365 C56.2471475,28.1013498 57.7209075,29.4108165 58.6871475,30.8691231 C59.3988142,31.9492298 59.9705875,33.4457631 60.1576542,34.7292031 C60.1958809,35.0024831 60.2088942,35.2977231 60.2088942,35.8507898 C60.2056409,38.5543098 59.2524142,40.9723498 57.5021209,42.7356565 C56.5936275,43.6474031 55.5387342,44.3143365 54.0137342,44.9438565 C52.4187875,45.6010298 50.9157475,45.7726431 46.0105342,45.8645498 C44.2277075,45.8995231 26.2327075,45.8840698 24.3522809,45.8458431 C23.9488675,45.8360831 22.2075209,45.8238831 20.4759342,45.8141231 C15.8602675,45.7889098 13.0355609,45.7344165 11.7269075,45.6425098 C10.9957209,45.5880165 10.5386275,45.5213231 9.92212087,45.3627231 C8.00590754,44.8739098 7.01770754,44.2858698 5.50572087,42.7324031 C4.22878754,41.4196831 3.33900087,39.7873231 2.98032087,38.0842031 C2.54437421,36.0126431 2.82416087,33.9378298 3.80585421,31.9589898 C4.37193421,30.8178831 5.44553421,29.5629098 6.69400087,28.5690165 C7.19582754,28.1656031 7.69440087,27.8606031 8.38085421,27.5263231 C9.42273421,27.0155498 9.74074754,26.7772431 9.95384087,26.3258431 C10.0709609,26.0810298 10.1254542,25.8110031 10.1254542,25.4775365 C10.1254542,24.8707898 10.4141875,23.6605498 10.8143475,22.5739365 C11.0306942,21.9891498 11.4088942,21.2229898 11.7106409,20.7724031 C12.6386542,19.3840431 14.1636542,18.0713231 15.8252942,17.2360298 C17.2770942,16.5089098 18.5036009,16.2413231 20.2156675,16.2828031 C20.9492942,16.2990698 21.4356675,16.3527498 22.0838942,16.4796298 C23.0021475,16.6610031 23.5958809,16.8708431 24.5938409,17.3694165 C25.4323875,17.7890965 25.5373075,17.8175631 25.8610142,17.7256565 C26.1603209,17.6361898 26.2872009,17.4840965 26.7735742,16.6325365 C27.3038675,15.6980165 27.4819875,15.4157898 27.7926809,14.9993631 C29.2005609,13.1278831 31.4754542,11.4255765 33.7788142,10.5105765 C34.9475742,10.0494165 35.5543209,9.91602979 36.8637875,9.82412312 C37.1370675,9.80460312 37.4323075,9.78589645 37.5177075,9.77938979 C37.8576809,9.76718979 40.2342409,9.80134979 40.4692942,9.83632312 L40.4692942,9.83632312 Z" id="Imported-Layers" sketch:type="MSShapeGroup"></path>
        </g>
    </g>
</svg>